Coordinates
version=1
nRows=43
nColumns=12
inDegrees=yes

Units are S.I. units (second, meters, Newtons, ...)
Angles are in degrees

endheader
time	SC_y	SC_z	SC_x	AC_y	AC_z	AC_x	GH_y	GH_z	GH_yy	EL_x	PS_y
       0.0              -50.56          38.09          47.94          60.62         -2.007         -17.03         -159.9          49.14          55.35          104.7          6.777
    0.0396              -50.56          38.09          47.94          60.62         -2.007         -17.02         -159.9          49.14          55.34          104.7          6.799
   0.07919              -50.56          38.09          47.94          60.63         -2.007         -17.02         -159.8          49.13          55.33          104.7          6.822
    0.1188              -50.56          38.09          47.93          60.63         -2.006         -17.02         -159.8          49.12          55.31          104.7          6.846
    0.1584              -50.55          38.09          47.93          60.63         -2.006         -17.02         -159.8          49.12           55.3          104.7          6.872
     0.198              -50.55          38.09          47.93          60.63         -2.006         -17.02         -159.7          49.11          55.29          104.7            6.9
    0.2376              -50.54          38.09          47.93          60.63         -2.005         -17.01         -159.7           49.1          55.27          104.6          6.929
    0.2772              -50.54          38.09          47.93          60.63         -2.005         -17.01         -159.7          49.09          55.26          104.6          6.961
    0.3168              -50.54          38.09          47.93          60.63         -2.005         -17.01         -159.6          49.08          55.24          104.6          6.995
    0.3564              -50.53          38.09          47.93          60.63         -2.004          -17.0         -159.6          49.07          55.22          104.6          7.031
     0.396              -50.53          38.09          47.93          60.63         -2.004          -17.0         -159.5          49.06          55.21          104.6           7.07
    0.4356              -50.52          38.09          47.92          60.63         -2.003          -17.0         -159.5          49.04          55.19          104.5          7.112
    0.4751              -50.51          38.09          47.92          60.63         -2.003         -16.99         -159.4          49.03          55.16          104.5          7.157
    0.5147              -50.51          38.09          47.92          60.63         -2.002         -16.99         -159.4          49.02          55.14          104.5          7.206
    0.5543               -50.5          38.09          47.92          60.64         -2.002         -16.99         -159.3           49.0          55.11          104.4          7.259
    0.5939              -50.49          38.09          47.92          60.64         -2.001         -16.98         -159.2          48.98          55.09          104.4          7.316
    0.6335              -50.48          38.09          47.91          60.64         -2.001         -16.98         -159.1          48.96          55.06          104.4          7.379
    0.6731              -50.47          38.09          47.91          60.64           -2.0         -16.97         -159.1          48.94          55.02          104.3          7.447
    0.7127              -50.46          38.08          47.91          60.64         -1.999         -16.96         -159.0          48.92          54.99          104.3          7.521
    0.7523              -50.45          38.08          47.91          60.64         -1.998         -16.96         -158.9           48.9          54.95          104.2          7.602
    0.7919              -50.44          38.08           47.9          60.65         -1.997         -16.95         -158.8          48.87           54.9          104.2          7.691
    0.8315              -50.43          38.08           47.9          60.65         -1.996         -16.94         -158.6          48.84          54.86          104.1          7.789
    0.8711              -50.41          38.08          47.89          60.65         -1.995         -16.93         -158.5          48.81           54.8          104.0          7.898
    0.9107               -50.4          38.08          47.89          60.65         -1.994         -16.92         -158.4          48.77          54.74          104.0          8.018
    0.9503              -50.38          38.08          47.88          60.66         -1.993         -16.91         -158.2          48.73          54.68          103.9          8.151
    0.9899              -50.36          38.08          47.88          60.66         -1.991          -16.9         -158.0          48.69          54.61          103.8            8.3
     1.029              -50.34          38.08          47.87          60.66         -1.989         -16.89         -157.8          48.64          54.53          103.7          8.467
     1.069              -50.31          38.08          47.87          60.67         -1.987         -16.87         -157.6          48.59          54.43          103.6          8.655
     1.109              -50.28          38.08          47.86          60.67         -1.985         -16.86         -157.3          48.52          54.33          103.4          8.867
     1.148              -50.25          38.08          47.85          60.68         -1.982         -16.84         -157.0          48.45          54.21          103.3          9.108
     1.188              -50.21          38.07          47.84          60.69          -1.98         -16.81         -156.7          48.37          54.08          103.1          9.383
     1.227              -50.17          38.07          47.83          60.69         -1.976         -16.79         -156.3          48.27          53.93          102.9          9.698
     1.267              -50.12          38.07          47.81           60.7         -1.972         -16.76         -155.8          48.17          53.75          102.7          10.06
     1.307              -50.07          38.07           47.8          60.71         -1.968         -16.72         -155.3          48.04          53.54          102.4          10.49
     1.346               -50.0          38.07          47.78          60.72         -1.963         -16.68         -154.7          47.89           53.3          102.1          10.98
     1.386              -49.92          38.06          47.76          60.74         -1.957         -16.64         -154.0          47.72          53.02          101.7          11.56
     1.425              -49.83          38.06          47.73          60.75         -1.949         -16.58         -153.1          47.51          52.68          101.3          12.26
     1.465              -49.72          38.06           47.7          60.77         -1.941         -16.51         -152.1          47.27          52.28          100.8          13.09
     1.505              -49.58          38.05          47.66           60.8          -1.93         -16.43         -150.8          46.97          51.79          100.1           14.1
     1.544              -49.42          38.04          47.61          60.83         -1.917         -16.33         -149.3           46.6          51.19          99.37          15.33
     1.584              -49.21          38.04          47.55          60.86         -1.901         -16.21         -147.4          46.15          50.45          98.41          16.84
     1.623              -48.96          38.03          47.48          60.91         -1.881         -16.06         -145.1          45.59          49.53          97.22          18.73
     1.663              -48.64          38.01          47.39          60.96         -1.856         -15.86         -142.1          44.88          48.37          95.73          21.12
